<?xml version="1.0" standalone="no"?>
<!DOCTYPE svg PUBLIC "-//W3C//DTD SVG 20010904//EN"
 "http://www.w3.org/TR/2001/REC-SVG-20010904/DTD/svg10.dtd">
<svg version="1.0" xmlns="http://www.w3.org/2000/svg"
 width="192.000000pt" height="192.000000pt" viewBox="0 0 192.000000 192.000000"
 preserveAspectRatio="xMidYMid meet">
<metadata>
Created by potrace 1.14, written by Peter Selinger 2001-2017
</metadata>
<g transform="translate(0.000000,192.000000) scale(0.100000,-0.100000)"
fill="#000000" stroke="none">
<path d="M1114 1810 c-32 -13 -17 29 -155 -425 -64 -209 -55 -191 -112 -210
-29 -9 -90 -32 -137 -50 -47 -18 -131 -50 -187 -70 -57 -21 -110 -46 -119 -56
-21 -23 -12 -62 18 -77 31 -15 456 -172 467 -172 9 0 22 -39 76 -225 14 -49
38 -128 52 -175 13 -47 33 -111 42 -144 21 -71 50 -107 80 -99 27 7 41 31 62
108 24 85 127 431 145 485 l14 45 245 90 c229 84 245 92 255 120 14 40 -3 54
-125 99 -55 21 -122 46 -150 57 -63 23 -97 36 -110 40 -5 1 -34 12 -64 24
l-54 23 -44 143 c-24 79 -52 171 -62 204 -10 33 -31 101 -47 150 -15 50 -36
98 -47 108 -11 9 -20 17 -21 16 -1 0 -11 -4 -22 -9z"/>
<path d="M290 1787 c-17 -9 -32 -33 -50 -81 -22 -59 -30 -71 -63 -86 -21 -10
-39 -18 -40 -17 -10 5 -68 -26 -76 -42 -11 -21 3 -70 21 -72 14 -2 22 -5 53
-18 17 -8 41 -16 53 -20 18 -5 31 -25 54 -84 23 -60 35 -78 53 -83 38 -9 59
11 84 80 25 71 29 76 81 96 79 30 98 42 105 67 8 35 -13 55 -89 82 -68 24 -66
21 -110 133 -18 46 -44 61 -76 45z"/>
<path d="M497 663 c-8 -16 -17 -41 -21 -58 -17 -76 -37 -135 -46 -135 -19 0
-120 -42 -134 -55 -15 -15 -10 -59 8 -74 6 -5 33 -16 60 -25 71 -24 83 -33 89
-63 6 -34 13 -62 29 -127 15 -59 43 -82 81 -65 25 11 32 30 68 180 10 45 12
46 74 68 79 28 100 50 88 87 -7 21 -24 32 -78 54 -75 30 -81 38 -106 150 -15
65 -34 90 -69 90 -22 0 -33 -7 -43 -27z"/>
</g>
</svg>
